<svg xmlns="http://www.w3.org/2000/svg" version="1.1" xmlns:xlink="http://www.w3.org/1999/xlink" xmlns:svgjs="http://svgjs.com/svgjs" width="512" height="512"><svg id="SvgjsSvg1000" data-name="Layer 1" xmlns="http://www.w3.org/2000/svg" viewBox="0 0 512 512">
  <defs>
    <style>
      .cls-1 {
        fill: #231f20;
      }

      .cls-1, .cls-2 {
        stroke-width: 0px;
      }

      .cls-2 {
        fill: #fff;
      }
    </style>
  </defs>
  <rect class="cls-1" x=".41" width="511.98" height="511.98"></rect>
  <ellipse class="cls-1" cx="255.24" cy="256" rx="254.88" ry="256"></ellipse>
  <path class="cls-2" d="M371.96,332.53c-19.28,23.74-48.72,36.53-78.87,34.98l1.88,5.16,56.25,129.36h-36.99l-69.58-168.77h63.66c6.68-2.31,21.5-8.51,32.22-23.68,15.1-21.34,16.45-52.52.73-75.01-12.71-18.24-31.74-23.88-38.14-25.46h-113.98l-13.33-33.46h127.31c37.64,2.99,70.28,27.03,83.64,61.71,12.01,31.12,7.38,67.85-14.79,95.17Z"></path>
  <path class="cls-2" d="M298.68,255.96v34.28H124.72V80.48c10.86-21.56,21.72-43.11,32.59-64.67v240.15h141.37Z"></path>
  <path class="cls-2" d="M258.74,511.96c-17.68.23-42.61-1.27-71.09-9.16-68.51-19.03-109.63-61.88-122.15-75.83-14.03-15.7-57.2-67.85-64.47-148.08C-8.35,175.48,49.11,103.23,63.28,86.43,96.71,46.91,134.54,26.1,157.3,15.81c-10.86,21.57-21.72,43.13-32.59,64.67-11.68,10.18-24,22.89-35.53,38.68-41.79,57.2-47.12,119.36-47.43,150.39,2.05,20.35,10.55,78.26,57.06,129.14,61.92,67.8,144.18,71.69,159.9,72.14,0,13.7,0,27.43.03,41.13Z"></path>
  <path class="cls-2" d="M491.69,353.13c-8.95,22.72-18.69,38.45-21.27,42.59-25.09,39.83-56.33,63.74-76.26,76.56-8.39-11.14-16.78-22.3-25.18-33.43,17.49-10.63,50.35-33.86,74.57-75.83,40.58-70.36,26.35-140.67,22.4-157.64-3-12.97-24.39-98.27-109.43-143.63-69.44-37.04-136.1-23.31-153.33-19.2V5.35c20.66-4.17,53.33-8.2,92.51-2.17,52.04,7.95,87.62,29.32,97.73,35.66,12.71,8.01,50.1,33.15,79.93,81.05,25.01,40.17,32.59,76.9,34.8,89.22,12.32,68.81-8.31,123.22-16.48,144.02Z"></path>
</svg><style>@media (prefers-color-scheme: light) { :root { filter: none; } }
</style></svg>