<?xml version="1.0" encoding="UTF-8"?>
<svg xmlns="http://www.w3.org/2000/svg" viewBox="0 0 1010.78 209.1">
  <defs>
    <style>
      .cls-1 {
        fill: #fff;
        stroke: #fff;
        stroke-miterlimit: 10;
      }
    </style>
  </defs>
  <path class="cls-1" d="M1010.28,201.11c-2.15,0-3.77,0-5.93,0-.25-.23.14-.56-.69-.69,0-.08.04-.16-.1-.21-.44-.04-1.33,0-1.77-.03-.42-.11-.54-.27-1.08-.36-1.18-.03-2.7.02-4.14,0-.37-.05-.61-.12-.79-.2h-1.87c-.15.04-.5.05-.39.13-.52-.04-.98.04-1.48.05-1.04.02-2.18-.02-3.25.02-.33.11-.07.32-.3.44-.67.01-.72-.08-1.48-.05-.27.04-.29.12-.79.12-.31.08.34.22-.49.2-.52,0-.28-.11-.3-.15-.02-.06.05-.15,0-.21-.03-.04-.23-.06-.3-.1-.13-.08.1-.16,0-.23-.04-.06-.69-.03-.79-.08v-1.23c0-.14.22-.32-.3-.38-.72-.03-.39.11-.59.16-.49.02-.98.03-.79.16-.23-.1-.03-.27-.1-.39.59-.08.19-.16.59-.23-.03-.1-.98-.04-1.08-.13.35-.1.4-.31.2-.44-.25-.06-.97-.07-1.18-.05-.36-.42-.43-.97-.69-1.38-.03-.05.23-.16-.3-.18-.54.07-.3.2-.3.31,0,.37.13.79,0,1.1-.62.02-1.37.02-1.28.16-.59-.03-1.43-.01-2.17-.02-.49,0-.07-.15-.79-.12-.49.06-.23.24-.3.36-.23-.08-.08-.23-.59-.26-.48.02-.47.12-.59.2-.09.05-.18.22-.3.26-.24.09-.65.11-.98.18.01.29-.11.51.1.77.04.07-.57.03-.49.1v.92c-.15.06-.76.04-.89.1-.5-.03-.53-.12-1.08-.15-.5-.03-1.2,0-1.87-.02-.06-.17.08-.32,0-.46-.01-.03-.15-.05-.2-.08-.06-.05.07-.11,0-.13-.18-.07-.69-.08-.79-.15-.15-.1.15-.24.1-.36-.04-.11-.19-.21-.3-.33-.5-.02-1.49,0-2.07.02-.45.05-.33.2-.89.23-.07.25.13.54-.1.76-.93.04-.41-.16-1.08-.16-.05-.15.11-.32-.1-.44-1.02-.03-2-.04-3.05-.05-.91-.01-2.5-.06-3.25-.03-.47.02-1.15.14-1.28.21-.41.25.45.67-.2.92-.4.03-1.05.02-1.48.05-.14.2.18.51,0,.71-.08.08.12.15-.59.15-.46,0,0-.15-.3-.18-.1,0-.22,0-.33,0h0c-.45-.01-.95-.01-1.46-.01-.18.09-.2.21-.98.2-.23-.15.01-.37.1-.53-.02-.06-.31-.07-.39-.13-.19-.13.19-.35,0-.48-.18-.12-.7-.13-1.08-.2-.05-.18-.05-.37-.2-.53-1.45-.04-3.14-.03-4.82-.03-.34,0-.2-.09-.49-.1-1.29-.09-3.5-.02-5.12-.02-.26-.06.06-.21-.2-.26-1.21-.11-2.97-.1-4.73-.08-.25-.09-.2-.2-.69-.28-.91,0-1.52.05-2.36.02-.05-.15.11-.32-.1-.44-.39-.03-1.04-.01-1.58-.02-.41-.02-.03-.17-.39-.2-1.38-.06-3.59.02-4.63-.1-.33,0-.44.05-.89.03-.32.04-.38-.04-.69-.05-.24,0-.38.04-.59.03-.3,0-.58-.04-.89-.05-2.87-.05-6.51,0-9.65-.03-.18-.21-.1-.43-.1-.64s.25-.47-.1-.64c-.27-.13-1.45-.21-2.26-.31-.66-.08-1.6-.27-2.36-.3-1.23-.05-3.12,0-4.63-.02-.58,0-1.04-.04-1.57,0-.23.78-.03,1.63-.1,2.43-1.92.05-4.36,0-6.2.07v.28c-.86.05-2.43-.02-3.15.05v.95c-.32-.11-.6-.23-.98-.36-.04-.01-.08-.03-.13-.04v-.05c-.31-.08-.66-.17-.76-.25-.37-.31.27-.62,0-.99-.33-.05-.85-.07-1.18-.11.11-.39-.41-.67-.59-1,.02-.08-7.27-.71-7.19-.46-.81-.07-1.67-.28-2.56-.39-.27-.06.26-.1,0-.15-1.46-.19-4.65-.23-6.99-.16-.42.05.19.09-.2.13-.44.02-.58.09-.98.12-.3-.02-.7-.03-1.08-.03-.34,0-.14-.11-.2-.16-.12-.03-.39-.03-.59-.04l-.22-14.76,143.53.04v-13.28c-.25.02-72.6,3.33-72.86,3.35-8.54-1.78-16.96-4.62-25.22-8.52-28.99-13.7-46.07-35.96-46.24-36.18l-.03.02v-.35s-30.92-6.24-30.92-6.24l-2.64,1.44v.97c-2.69,5.8-19.45,39.71-44.92,44.1-2.01.35-4.03.5-6.05.46-6.19-3.12-12.4-7.97-18.61-14.53l-.02-1.08-17.12-3.45-1.46.8v.81c-2.94,3.94-13.44,16.87-29.35,23.76-.16-.06-.32-.11-.47-.14-1.43-.25-4.45.16-6.18.26-2,.11-3.87.19-5.8.39-.26.63-.22,1.47-.18,2.3-.75-.11-1.51-.24-2.27-.38.02-1.03.09-2.1.02-3.07-1.06-.26-.83-1.4-1.68-1.8-1.09-.17-2.99-.26-3.93-.13-.2.89-.55,3.21-.49,3.54-3.17-.92-6.44-2.12-9.79-3.64-.01-.5-.02-1.02-.02-1.57-.63-.52-1.42-.69-1.87-1.41-.22-.34-.4-1.63-.56-2.06-.23-.59-.2-1.36-1.12-1.54-.97.28-.69,1.41-1.12,2.06-.12-.99.37-2.4-.56-2.83-.1-.02-.16-.02-.24-.03l.24-10.59-6.81-.69-1.39.35c-.1-.13-.23-.25-.42-.35-.5.07-.62.33-.63.62l-6.57,1.65-.26,13.99c-1.26-.76-2.51-1.57-3.77-2.42v-10.49l-.2-.2v-3.51h-.74v-.4h-.54v-1.01h-.27v-.47h-1.01v-1.49l-7.09-5.81-7.43,4.12v1.69h-.74v1.96h-.68v3.38h-.94v5.68h-4.32v1.28h-1.15v1.28h-1.08v1.96h-1.01v2.03h-1.22v2.57h-1.76v1.21h-1.28v1.62h-.47v1.69h-.34v1.49h-.4v6.01h-2.18s-.45-23.19-.64-38.29c-.08-.23-.51-.1-.51-.42v-7.76c-.41-.26-1.12-.23-1.6-.42-.07-1.01-.73-3.57-.51-4.47-.36-.23-.79-.39-1.1-.67-.07-.3.19-.41,0-.59-.47-.36-1.16-1.04-1.36-1.77-.45-1.63.12-4.04-.24-5.91-.11-.57-.51-.99-.25-1.52-.14-.31-.49-.41-.59-.76,0-2.25-.38-4.63-.02-6.69-.4-1.1-.4-2.99-.57-4.36-.24,1.37-.07,3.29-.59,4.42.35.89.15,5.03.17,6.54,0,.39-.54.54-.67.84.24.56-.16.96-.25,1.52-.29,1.75.07,3.8-.14,6.06.02.35-2.48,8.13-2.56,8.71-.13.92.13,2-.08,3.12-.08.2-1.08,1.58-1.18,2.28-.26,1.94.26,4.36-.08,6.33-.08.47-.51.97-.59,1.43-.26,1.55.03,13.82.02,18.25h-.88l-1.27.14-.14-20.01-10.76-1.62-4.81,1.41.03,9.04-.34.07h-.1c.06-18.45.11-38.01.11-46.04,0-15.8-13.08-15.49-13.08-15.49l-4.27,1.24v69.9c-1.61-.21-3.23-.41-4.85-.61-.43.14-.41,1.33-.79,1.13-.18-15-.41-29.96-.79-44.76-.24.33-.05,1.09-.45,1.25-.03-.34.13-.88-.23-.91-.13.88-.16,1.88-.34,2.72-.05-.55.12-1.33-.11-1.7-.59.21-.34,1.24-.68,1.7-.17-1.33-.08-3.73-.23-5.44-2.11-.27-4.13-.62-6.35-.79.03-.41-.41-3.04-.45-3.97-.17-3.88-.21-8.25-.34-12.01v-2.04c-.24-.08-.06,1.22-.11,1.7v12.35c0,1.32.2,2.64-.34,3.74-1.41-.18-2.89-.29-4.19-.57-.02,1.52.01,3.8,0,5.78,0,.58.19,1.34-.23,1.7-.57-.98.23-3.33-.91-3.74-.08,2.9-.11,5.86-.34,8.61-.16-.18-.58-.1-.91-.11-.5-3.28-.36-7.2-.91-10.43-.33,9.78-.3,19.71-.18,29.7h-.42v-.33h-1.02v-7.19h-.36v-2.1h-.39v-2.1h-.36v-.78h-.36v-1.17h-.33v-1.02h-.42v-.39h-.33v-1.38h-.33v-1.11h-.36v-1.8h-.39v-2.55h-.33l-.12-9.17-.27,9.14h-.33v2.55h-.36v1.83h-.42v1.11h-.27v1.35h-.45v.78h-.3v1.47h-.36v1.08h-.39v2.16h-.33v2.16h-.36v7.5h-1.02v-.41h-.4v-.72h.36v-.63h-.4v-.77h.36v-.67h-.36v-1.08h.4v-.76h-1.12v-.77h.72v-.67h-1.08v-.67h.41v-.76h-1.12v-.58h.68v-.81h-1.08v-.4h.72v-1.03h-1.08v-.36h.36v-1.08h-1.03v-.45h.72v-.94h-.67v.18h-.41v-.72h.63v-.5h-.27v-.49h-.27v.36h-.49v-.45l.49.09v-.99h-1.17v-.4l-2.92-7.96-6.43-1.08-2.65,9.71h-.22v.32h-.81v.81h.49v.72h-.9v1.04h.49v.36h-.72v1.08h.36v.67h-1.08v.72h.67v.72h-1.08v1.12h.5v.4h-.76v1.04h.4v.67h-.85v.72h.4v.72h-.95v.81h.54v.81h-1.03v.72h.32v.36h.36v.63h-.4v1.08h.45v.32h-.36v.72h.41v.72h-.45v.72h.36v.68h-.4v.76h.45v.45h-.45v.59h-.63v1.48h-.68v-1.66h-1.57v4.24c-.15.13-.27.16-.38.16,0-9.26,0-22.23-.01-23.04.06-.45-.5-.3-.65-.54.09-.77-.13-1.29,0-1.84.19-.78,1.07-.89.98-1.52-.76-.08-1.7.33-2.49-.11-.27-.53.73-.72.76-1.3-.37-.19-.78-.06-1.08.11-.14-2.17.22-4.29-.11-6.18-.04-.25-.17-.5-.28-.74-.05-.27-.11-.54-.17-.8-.01-.54.11-1.07.02-1.61-.06-.4-.36-.77-.43-1.19-.16-1,.15-2.14-.54-3.03.07-1.62-.26-2.85-.98-3.69.11-1.59-.51-2.45-1.19-3.25.25-1.1-.62-1.84-.87-2.82-.09-.34-.13-.72-.18-1.12,0-.22-.01-.45-.04-.67-.02-.15-.06-.3-.1-.44,0-.02,0-.03,0-.05-.14-.79-.24-1.58-.32-2.38.02-.31.03-.62,0-.93-.02-.21-.08-.41-.14-.62-.08-1.08-.14-2.16-.18-3.23-.11-2.49-.04-5.07-.19-7.57,0-.32-.03-.64-.07-.96-.02-.19-.02-.39-.04-.57v.29c-.03-.19-.08-.38-.14-.56-.37,3.05-.19,6.31-.33,9.43-.1,2.37-.23,4.78-.65,7.15-.14.81-.16,1.61-.33,2.28-.25.98-1.12,1.71-.87,2.82-.68.8-1.3,1.66-1.19,3.25-.72.83-1.04,2.06-.98,3.69-.69.89-.38,2.03-.54,3.04-.07.42-.37.8-.43,1.19-.1.65.11,1.29,0,1.95-.06.4-.37.79-.43,1.19-.32,1.89.04,4.01-.11,6.18-.31-.17-.71-.3-1.08-.11.03.58,1.03.77.76,1.3-.8.44-1.74.03-2.49.11-.09.63.79.74.98,1.52.13.55-.09,1.07,0,1.84-.15.24-.71.09-.65.54-.07,9.44.14,6.61-.11,16.22-.83.08-1.33.09-2.17.16-.3.13-.09.78-.33.98h-1.95c.04,1.26-.17,1.69-.11,3.04-.35.21-.46.48-.54.87-.21.95-.16,2.33-.16,3.67,0,2.19.05,4.42.05,6.73,0,.74.37,1.99-.54,2.28.22-7.68-2.56-48.87-3.04-53.04-.07-.65.03-1.36-.11-1.84-.33-1.15-2-1.98-2.28-3.25-.21-.96,0-2.19,0-3.25,0-3.2-.09-6.32-.11-9.32-.79.12-1.25.55-2.06.65.08-3.84-.12-7.4-.11-11.17-.39-.99-.18-3.37-.22-4.99,0-.38.19-1.02-.22-1.19.03,2.46-.12,5.02-.11,7.59.02,2.74-.8,9.39-.54,10.3-1.2.28-2.25.71-3.36,1.08-.91,3.37-1.66,7.13-2.49,10.84-.27,1.18-.7,2.31-.87,3.47-.36,2.45-.33,5.05-.54,7.59-.57,7.01-1.86,42.29-1.95,42.64v.87h-.63l-.5-10.38-3.32-.23v-.85l-.15-.14-4.06-98.55-2.87-.76,1.66-2.26-3.32-2.11-3.02-.3s.15-24.76-1.21-30.05c0,0-1.06,6.34-1.06,30.2l-5.44.76-1.21,2.72,1.51,1.21-2.72,1.66-2.82,95.98h-.59l-.69-.25.02-43.22-12.49-2.82-4.84,1.97-.45,26.67h-.22s-.17-.9-.17-.9l-.17.62-.79.03-.07-1.34-.21-.04-.1-1.93-.14.03-.1-1.17-.24-.1-.03-.41h-.21l-.07.31-.17.24-.07.86-.07.27h-.24v-3.58l-.24-.07-.03-.27-.24-.21-.03-.45-.21-.07-.1-.86-.21-.03-.24-.38-.1-1.24-.65-.86-.34-.03-.07-1.55h-.24v.24h-.21l-.07,1.27-.31.07-.55.59-.07.51-.14.04-.03.65-.28.2-.03.45-.28.14v.58l-.24.17v.45l-.48.14-.07.72-.24.2-.07,3.1h-.21l-.07-1.31h-.24l-.07-.55-.14.03-.1.45-.21.03-.07,1.07-.24.07v1.93l-.24-.03-.1.55-.24.24-1.03.07-.38.48-.76.07v.24h-.79v.31l-.56.34V50.1l-6.24-1.44-8.64.8v104.96l-.17-.03h-1.24l-4.76.69v-10.24h-1.17v-4.09h-2.24v-5.24l-.64-.1v-38.89h-1.39v-7.76h-1.81v-4.72h-.85v-1.68h-1.49l-.16-1.27-.84-.12-.04-1.02-1-.12-.06-2.14-.55-1.74-.06-1.59-.37-1.57-.04-1.76-.51-1.61-.12-3.4-.83-14.89-.75,14.88-.05,3.49-.46,1.46v1.79s-.47,1.7-.47,1.7l-.03,1.67-.64,1.63-.06,2.12h-.84l-.23,1.34h-.85v1.36h-1.17v1.47h-.96v4.72h-1.6v8.07h-.75v39.1h-.85v5.03h-1.39v1.57c-.13.02-.25.04-.38.07-.14.69-.15,1.55-.14,2.45h-1.08v1.39l-.48.09c-.01-1.82.07-3.78.02-5.55-.74-.36-.57-1.96-1.17-2.51-.76-.24-2.73-.18-2.73-.18,0,0-.07,6.47-.26,7.54-.13.73-.8.88-1.04,1.62,0,.01,0,.03,0,.04l-.34.06v1.6h-1.67v.28h-.55v.27h-.32v.76h-.25v-.23h-.48v.25h-.34v.32h-1.36v-5.34c.1-.8-.67-.35-.65-1.08.07-3.15,0-5.26.01-8.45-.44-.72-.87-.97-1.18-1.98-.15-.48-.28-2.29-.39-2.87-.16-.83-.14-1.9-.78-2.16-.67.39-.48,1.98-.78,2.88-.09-1.38.26-3.35-.39-3.95-.95-.42-.39,1.26-1.04,1.26-.97.03-2.86.18-2.86.18,0,0-.87-1.55-1.69-1.8-.17-3.44-.18-8.74-.18-12.81,0-1.18-1.1-2.67-1.1-2.67,0,0-.17,11.79-.41,17.54-.28-.24-1.56.1-1.56.1l-.13,4.85-1.04,1.44.78,2.52s.17,3.23-.13,4.31c.25-1.43-.39-1.61-1.04-1.8.04-1.95-.78-1.8-.78-1.8,0,0-.39,13.31-.39,17.61-.13.59-.99.19-1.04.9-.13.81.17,1.61,0,2.52-.08.42-.34.6-.39,1.08-.07.68.03,1.65,0,2.34-.02.43.3,1.64-.39,1.62-1.1.29-.24-1.31-.65-2.16-.07,0-.13-.01-.18-.03v-17.07h-.53v-4.31h-1.14v-2.2h-.61v-.53h-1.05v-.35h-.26c0-.35-2.72-5.54-8.09-5.54s-7.56,5.36-7.56,5.36h-.44v.88h-.62v1.85h-1.67l-.11,18.04c-3.71.05-7.95.17-11.5.11-20.71-5.25-34.85-22.37-38.94-27.86-.02-.76-.03-1.18-.03-1.18l-.54-.11v-1.08l-.49.06-.16-1.19-1.14.11-.05,1.31-.65.06v1.31l-2.71.06v-1.02l-.76-.06.05-1.14h-1.41l.05,1.19h-.49v1.31l-9.53.63v-.91h-.49v-1.02l-1.52.06v1.19l-.54.11v1.02h-2.49v-.97l-.43-.06-.05-.8-1.19.06v1.02l-.38.06v.8l-.54.28v.7c-8.71,11.2-17.58,18.71-26.54,22.5-18.93-7.39-32.61-31.47-37.03-40.13-.06-2.51-.1-3.97-.1-3.97l-.86-.18v-1.7l-.77.09-.26-1.88-1.8.18-.09,2.05-1.03.09v2.05l-4.28.09v-1.61l-1.2-.09.09-1.79h-2.23l.09,1.88h-.77v2.05l-15.08.98v-1.43h-.77v-1.61l-2.4.09v1.88l-.86.18v1.61h-3.94v-1.52l-.69-.09-.09-1.25-1.88.09v1.61l-.6.09v.84c-.18.21-.4.46-.66.76l-.2.1v.12c-4.64,5.2-20.31,21.44-44.11,32.36-1.05.48-2.32,1.19-3.72,2.06-.09-1.88-.18-3.81-.29-5.54-.08-1.3-.36-2.96-.19-3.66.34-1.43,1.95-1.77,3.08-2.31.43-1.86,1.27-4.21.58-6.56-1.5-.41-1.53.66-2.51.77-1.12-.47-2.31.17-3.47-.39.34-1.94-.72-2.5-1.16-3.66.18-1.74.34-3.52,1.16-4.63-1.38-.41-2.12-1.48-1.74-3.66-.67-.52-2.23-.54-2.7-1.54-.3-.65-.13-2.64-.19-4.63-.12-3.84-.34-10.04-.58-13.5-.1-1.4,1.48-3.11.58-4.82.23-.61,1.13-.55,1.16-1.35-.43-3.51-.58-8.47-1.16-12.15-.48-3.06-1.18-5.77,1.74-6.75,1.05-4.02,5-5.16,6.75-8.49-1.22-1.8.4-2.85.77-4.63-2.66-1.26-4.98-2.86-7.71-4.05-.24.79-1.15.91-1.54,1.54-.53.5-.6,1.45-1.35,1.74-.98-.05-1.3-.75-1.93-1.16-.97-2.97-.93-5.29-2.32-7.71-.81-1.41-2.48-2.19-3.08-3.66-.39-.95-.85-2.6-.77-3.47.05-.59.58-.99.58-1.74,0-.83-.48-1.71-.58-2.7-.19-.9,1.15-.26.97-1.16.19-.88-.68-1.35-.19-1.93,1.34-.21,3.53.44,4.24-.39-1.28-.52-3.45-.15-4.05-1.35.49-1.5,3.06-.93,3.86-2.12-1.43-.05-3.53,1.11-4.24,0,.19-1.29,1.95-2.15,2.89-3.09.12-.12,1.18-.67.38-.77-1.89.73-3.43,3.03-5.79,2.12-.43-1.43.42-3.15.39-4.82-1.64,1.41-1.17,5.05-3.47,5.01-1.08-.02-1.66-1.4-2.51-2.12.02.02-.53-1.01-.58-.19.51.84,1.08,1.63,1.35,2.7-.93,1.09-3.46,1.23-4.82.39-.12-4.17-1.54-8.42-.77-13.11.23-1.41.87-2.54.77-3.86-.12-1.59-1.75-2.68-.96-4.24.21-1.14,2.31-.39,2.31-1.74.2-.62,0-2.3,0-2.89-.42-.8-2.25-.2-2.51-1.16-.1-1.39,1.32-1.25,1.16-2.7-.47-.63-.82-1.37-.96-2.31-.6.03-1.09-.46-1.54,0-1.02.15.34-1.02-.58-.77-1.33.42-1.76,1.46-1.74,3.09.01,1.1.71,2.14.39,2.89-.7.39-2.04.14-2.51.77.12,1.28.05,1.56,0,2.89.02.82,1.04.63,1.16,1.35.54,2.11.26,4.39.58,6.56.13.87.67,1.63.77,2.51.27,2.31-.77,5.16-.77,7.91,0,2.37.74,4.89.39,6.75-.21,1.1-1.25,1.83-1.74,2.89-1.29,2.81-1.47,6.56,0,9.06-.22.68-.6,1.2-.58,2.12.49,1.24,1.84,1.63,2.31,2.89-.24,1.49-1.43,2.98-1.35,4.44.08,1.46,1.44,2.02,1.93,3.28.31.79.79,2.63.58,3.86-.22,1.27-2.05,2.99-2.31,4.82-.12.88-.08,1.9.19,3.28.6.49,2.29-.11,2.89.39.94,3.24-2.42,5.5-2.12,7.52.17,1.14.74.8,1.35,1.74-1.08,3.28-.24,6.88.19,10.03.25,1.82-1.52,3.47-1.16,5.21-3.39,4.71-1.81,11.55-4.05,16.78-.28.66-.94,1.43-1.35,2.12-.41.69-1.09,1.43-1.35,2.12-.27.72-.07,1.61-.39,2.31-.34.77-1,1-1.35,1.74v2.51c-.36.86-1.68.76-1.93,1.74,1.66,1.57,1.22,5.52-.58,6.75-1.54.39-2.7,1.16-4.24,1.54-.27,1.91-1.07,4.6,0,6.17.76.78,2.31.77,2.7,1.93.07,8.88-1.39,16.22-1.16,25.26-.82,1.43-1.89,2.61-2.31,4.44-1.62.57-1.6,2.77-2.12,4.44.21.56.61.91.77,1.74.39,2.04-.24,4.62-1.35,5.4-.02,2.3-.3,4.33-.58,6.36-2.83.47-5.74.87-8.53,1.39.03-1.63.08-3.25.1-4.88-3.05.02-6,0-8.95-.02v11.57c-5.37.74-15.98,2.36-15.98,2.36l.1,7.91s863.18.14,1009.67.17v-7.49ZM923.22,167.81c2.9,1.01,5.82,1.9,8.75,2.66-2.92-.02-5.84-.16-8.75-.43v-2.23ZM917.53,165.66c1.7.7,3.42,1.35,5.13,1.96v2.38c-1.71-.17-3.43-.39-5.13-.65v-3.69ZM917.53,171.59c.27.02.54.04.82.06.37.12.73.24,1.1.35l-1.92.06v-.48ZM912.33,163.38c1.54.72,3.09,1.4,4.64,2.04v3.83c-.72-.11-1.44-.24-2.16-.36-.83-.3-1.66-.6-2.47-.91v-4.6ZM912.33,171.02c1.54.2,3.09.37,4.64.51v.55l-4.64.15v-1.21ZM290.84,155.65c3.14,1.56,6.51,2.9,10.07,3.9-.19.03-.37.06-.56.08-3.2-.55-6.37-1.41-9.51-2.58v-1.4ZM290.84,157.71c2.39.87,4.92,1.61,7.59,2.17-.9.1-1.8.18-2.69.22l-4.9-.04v-2.36ZM287.69,153.96c.87.5,1.76.98,2.67,1.44v1.47c-.89-.34-1.78-.7-2.67-1.09v-1.81ZM287.69,156.45c.87.38,1.76.73,2.67,1.08v2.53h-1.44c-.35-.03-.71-.06-1.06-.09-.06-.01-.12-.02-.18-.03v-3.48ZM283.66,151.48c1.15.76,2.33,1.5,3.55,2.21v1.87c-1.19-.54-2.37-1.12-3.55-1.74v-2.33ZM283.66,154.54c1.14.59,2.32,1.16,3.55,1.71v3.6c-1.19-.23-2.37-.5-3.55-.82v-4.49ZM279.63,148.62c1.14.86,2.32,1.72,3.55,2.54v2.39c-.74-.4-1.48-.82-2.22-1.26-.45-.27-.89-.54-1.33-.81v-2.87ZM279.63,152.24c.32.2.65.4.98.6.83.49,1.69.97,2.57,1.44v4.61c-1.19-.33-2.37-.7-3.55-1.11v-5.54ZM279.63,158.44c.5.17,1.02.34,1.53.5-.52-.11-1.03-.23-1.53-.35v-.14ZM279.63,159.25c1.16.28,2.34.53,3.55.74v.02l-3.55-.03v-.73ZM275.6,145.34c1.12.97,2.3,1.95,3.55,2.91v2.93c-1.23-.78-2.41-1.59-3.55-2.41v-3.43ZM275.6,149.56c1.14.82,2.32,1.62,3.55,2.39v5.68c-1.19-.43-2.37-.9-3.55-1.41v-6.66ZM275.6,156.89c1.15.49,2.33.95,3.55,1.38v.19c-1.21-.31-2.4-.65-3.55-1.03v-.54ZM275.6,158.12c1.15.37,2.34.71,3.55,1.02v.85l-3.55-.03v-1.84ZM271.71,141.76c1.06,1.04,2.19,2.09,3.41,3.16v3.49c-1.19-.88-2.32-1.77-3.41-2.66v-3.99ZM271.71,146.58c1.08.88,2.22,1.76,3.41,2.63v6.79c-1.14-.51-2.28-1.05-3.41-1.64v-7.77ZM271.71,155.08c1.09.56,2.23,1.09,3.41,1.61v.6c-1.17-.39-2.3-.81-3.41-1.25v-.95ZM271.71,156.73c1.1.44,2.24.85,3.41,1.24v1.99l-3.41-.02v-3.2ZM267.68,137.55c1.05,1.17,2.24,2.43,3.55,3.73v4.07c-1.26-1.06-2.45-2.12-3.55-3.16v-4.64ZM267.68,143.06c1.11,1.03,2.29,2.08,3.55,3.12v7.92c-.72-.38-1.44-.77-2.16-1.19-.47-.27-.93-.54-1.39-.82v-9.03ZM267.68,152.84c.35.21.69.42,1.05.62.81.47,1.64.92,2.5,1.37v1c-1.23-.5-2.41-1.04-3.55-1.59v-1.41ZM267.68,154.96c1.14.55,2.32,1.07,3.55,1.57v3.4l-3.55-.03v-4.94ZM267.2,137.01v4.72c-1.3-1.25-2.49-2.46-3.55-3.61-.06-2.28-.1-4.2-.14-5.57.9,1.18,2.14,2.72,3.69,4.46ZM251.2,176.86c-.22.27.23.45,0,.76-.77.58-1.5,1.65-2.19,2.02.07-1.28-.12-2.3-.08-3.54.02-.35-.41-.26-.34-.68-.04-.49.09-1.16-.08-1.52-.04-.26-.51-.1-.7-.22l-.12-7.18h6.83c-.02.65-.17,7.34-.21,9.42-1.24.1-2.41.4-3.11.94ZM249.29,159.77l-2.79-.02-.18-10.41c1.79-1.46,3.57-3.08,5.34-4.87.92.77,1.89,1.55,2.9,2.33l-.15,12.92-5.12.04ZM254.57,146c-.85-.66-1.67-1.33-2.46-1.99.58-.6,1.17-1.21,1.75-1.84.24.23.49.47.74.7l-.04,3.12ZM251.38,143.39c-.83-.72-1.63-1.42-2.38-2.12.61-.69,1.23-1.4,1.84-2.13.72.76,1.49,1.54,2.32,2.36-.59.65-1.19,1.28-1.78,1.89ZM250.93,143.84c-1.54,1.55-3.08,2.97-4.63,4.27l-.07-3.86c.78-.8,1.56-1.64,2.35-2.5.74.69,1.53,1.39,2.35,2.09ZM264.01,153.06s.1.06.15.08c.98.54,1.99,1.07,3.04,1.59v5.17l-3.03-.02c-.05-2.22-.1-4.52-.16-6.81ZM264.49,152.59c-.17-.09-.33-.19-.5-.28-.01-.63-.03-1.26-.04-1.88,1.05.72,2.13,1.43,3.25,2.12v1.46c-.93-.46-1.84-.94-2.71-1.42ZM263.93,149.64c-.09-3.8-.18-7.46-.25-10.56,1.06,1.13,2.24,2.31,3.53,3.53v9.18c-1.13-.7-2.22-1.42-3.27-2.16ZM254.62,141.33v.68c-.12-.1-.22-.21-.33-.31.11-.12.22-.25.33-.37ZM254.19,140.37c-.2.22-.39.44-.59.66-.84-.82-1.62-1.62-2.34-2.38.25-.31.51-.61.76-.93l2.17,2.65ZM249.48,136.3l1.19-.23.73.89c-.27.33-.53.65-.8.98-.45-.49-.88-.97-1.28-1.42l.16-.22ZM248.92,137.04c.4.45.82.91,1.26,1.4-.63.75-1.25,1.47-1.88,2.18-.42-.39-.82-.78-1.21-1.16l1.82-2.42ZM247.88,141.09c-.55.61-1.11,1.21-1.66,1.8v-2.27l.49-.65c.37.37.77.74,1.17,1.12ZM237.27,135.69c.23-.29.47-.58.7-.88l-.03,3.67c-.22.23-.45.46-.67.69v-3.48ZM237.27,140.54c.22-.22.44-.44.66-.66l-.09,10.6c-.19.14-.38.28-.56.42v-10.35ZM237.27,152.09c.18-.13.37-.27.55-.41l-.02,2.23c-.18.09-.36.19-.53.28v-2.1ZM237.27,155.27c.17-.09.35-.17.52-.26l-.04,4.68h-.48v-4.42ZM233.88,139.69c.97-1.09,1.94-2.23,2.91-3.42v3.39c-.97.98-1.94,1.93-2.91,2.84v-2.81ZM233.88,143.82c.97-.89,1.94-1.82,2.91-2.78v10.22c-.97.7-1.94,1.36-2.91,1.97v-9.41ZM233.88,154.34c.97-.59,1.94-1.23,2.91-1.91v2c-.97.48-1.94.91-2.91,1.29v-1.38ZM233.88,156.76c.97-.37,1.94-.79,2.91-1.26v4.17l-2.91-.02v-2.89ZM230.6,143.19c.93-.95,1.86-1.93,2.79-2.96v2.71c-.93.86-1.86,1.69-2.79,2.48v-2.23ZM230.6,146.68c.93-.78,1.86-1.59,2.79-2.43v9.26c-.93.57-1.86,1.09-2.79,1.57v-8.4ZM230.6,156.17c.93-.47,1.86-.98,2.79-1.53v1.27c-.93.35-1.86.66-2.79.91v-.66ZM230.6,157.82c.93-.25,1.86-.55,2.79-.88v2.71l-2.79-.02v-1.81ZM227.21,146.45c.97-.88,1.94-1.81,2.91-2.78v2.15c-.97.81-1.94,1.59-2.91,2.33v-1.7ZM227.21,149.36c.97-.73,1.94-1.49,2.91-2.28v8.25c-.97.48-1.94.92-2.91,1.31v-7.28ZM230.12,156.4v.55c-.81.21-1.63.39-2.45.54.82-.33,1.63-.69,2.45-1.09ZM227.21,158.54c.97-.15,1.94-.34,2.91-.59v1.68l-2.91-.02v-1.07ZM223.81,149.34c.97-.77,1.94-1.59,2.91-2.45v1.63c-.97.73-1.94,1.42-2.91,2.08v-1.25ZM223.81,151.75c.97-.64,1.94-1.32,2.91-2.03v7.11c-.97.37-1.94.7-2.91.98v-6.06ZM223.81,158.87c.97-.04,1.94-.13,2.91-.26v.99l-2.91-.02v-.72ZM223.33,149.72v1.19c-.97.64-1.94,1.25-2.91,1.82v-.71h-.24c1.05-.72,2.11-1.48,3.16-2.3ZM220.42,157.83v-3.98c.97-.56,1.94-1.16,2.91-1.79v5.85c-.97.02-1.94,0-2.91-.08ZM223.33,158.94v.64l-2.81-.02c.94-.16,1.87-.37,2.81-.62ZM217.14,153.94c.93-.55,1.86-1.13,2.79-1.76v.83c-.93.54-1.86,1.04-2.79,1.51v-.58ZM217.14,155.61c.93-.46,1.86-.96,2.79-1.48v3.67s-.09,0-.13,0c-.9-.09-1.78-.22-2.66-.39v-1.79ZM217.14,158.38c.81.15,1.62.27,2.45.35-.82.12-1.63.21-2.45.27v-.62ZM213.75,155.76c.97-.47,1.94-.98,2.91-1.53v.54c-.97.48-1.94.92-2.91,1.33v-.34ZM216.66,155.84v1.45c-.69-.14-1.38-.31-2.06-.5.69-.3,1.38-.62,2.06-.95ZM213.75,157.55c.96.29,1.93.54,2.91.74v.75c-.97.05-1.94.06-2.91.01v-1.5ZM213.27,155.98v.32s-.07.03-.11.05c-.13-.04-.27-.09-.4-.14.17-.08.34-.16.5-.23ZM210.84,157.03c.21-.08.43-.17.64-.25.1.04.2.08.3.12-.31.12-.63.23-.94.34v-.2ZM210.84,158.25c.79-.27,1.57-.56,2.36-.87.02,0,.05.02.07.02v1.62c-.42-.02-.84-.06-1.26-.1-.39-.04-.78-.09-1.17-.14v-.53ZM207.75,158.19c-.06-.01-.12-.03-.18-.04.93-.27,1.86-.58,2.78-.93v.18c-.87.29-1.74.56-2.61.8ZM210.35,158.41v.29c-.2-.03-.4-.06-.6-.1.2-.06.4-.13.6-.19ZM207.44,154.97c.9.46,1.81.89,2.74,1.28-.91.35-1.82.66-2.74.93v-2.21ZM204.17,153.09c.92.58,1.85,1.12,2.79,1.62v2.6c-.41.11-.81.22-1.22.32-.53-.16-1.05-.34-1.57-.52v-4.03ZM206.96,159.4v.06h-.26c.09-.02.17-.04.26-.06ZM204.17,158.97c.52-.1,1.04-.21,1.56-.33.04.01.07.02.11.03-.56.13-1.11.24-1.67.34v-.05ZM200.77,150.76c.95.71,1.92,1.39,2.91,2.03v4.15c-.99-.37-1.96-.78-2.91-1.23v-4.95ZM200.77,156.76c.96.44,1.93.84,2.91,1.2v.11c-.97.18-1.94.31-2.91.4v-1.71ZM203.68,159.05v.05c-.72.13-1.44.23-2.16.32h-.55c.91-.09,1.81-.21,2.71-.37ZM197.98,148.54c.76.64,1.52,1.26,2.31,1.86v5.08c-.78-.38-1.55-.78-2.31-1.21v-5.72ZM197.98,155.36c.76.42,1.53.81,2.31,1.18v1.97c-.77.06-1.54.08-2.31.09v-3.24ZM194.58,145.46c.95.92,1.92,1.81,2.91,2.67v5.86c-.99-.57-1.96-1.18-2.91-1.83v-6.7ZM194.58,153.3c.95.63,1.93,1.23,2.91,1.78v3.52c-.97,0-1.94-.06-2.91-.16v-5.14ZM191.31,142.1c.9.98,1.84,1.95,2.79,2.89v6.83c-.95-.66-1.88-1.35-2.79-2.07v-7.66ZM191.31,150.96c.91.7,1.84,1.38,2.79,2.02v5.41c-.94-.11-1.87-.26-2.79-.44v-6.99ZM191.31,158.93c.92.18,1.85.32,2.79.43h0s-2.79,0-2.79,0v-.42ZM187.91,138.18c.93,1.14,1.91,2.27,2.91,3.38v7.8c-.99-.8-1.97-1.63-2.91-2.49v-8.7ZM187.91,148.16c.95.84,1.92,1.65,2.91,2.43v7.26c-.98-.21-1.95-.46-2.91-.76v-8.93ZM187.91,158.09c.96.29,1.93.53,2.91.74v.5c-.98-.14-1.95-.31-2.91-.51v-.74ZM184.88,134.3c.82,1.09,1.67,2.19,2.55,3.29v8.86c-.87-.8-1.72-1.63-2.55-2.47v-9.68ZM184.88,145.32c.83.82,1.68,1.62,2.55,2.4v9.21c-.86-.28-1.71-.58-2.55-.92v-10.69ZM184.88,157.05c.84.33,1.69.63,2.55.9v.78c-.86-.19-1.71-.41-2.55-.65v-1.03ZM184.88,159.08c.29.08.58.16.87.24h-.87v-.24ZM181.49,129.5c.91,1.36,1.88,2.75,2.91,4.15v9.84c-1-1.03-1.97-2.09-2.91-3.15v-10.84ZM181.49,141.77c.94,1.04,1.91,2.07,2.91,3.08v10.98c-.99-.41-1.96-.85-2.91-1.34v-12.72ZM181.49,155.55c.96.47,1.93.91,2.91,1.31v1.08c-.98-.29-1.95-.61-2.91-.97v-1.42ZM181.49,158c.96.35,1.93.66,2.91.95v.36l-2.91-.02v-1.28ZM178.21,124.36c.85,1.41,1.78,2.89,2.79,4.41v11.01c-.97-1.11-1.9-2.24-2.79-3.36v-12.06ZM178.21,137.94c.9,1.1,1.83,2.2,2.79,3.29v13c-.95-.49-1.88-1.02-2.79-1.57v-14.71ZM178.21,153.77c.92.54,1.85,1.06,2.79,1.54v1.48c-.94-.36-1.87-.74-2.79-1.15v-1.87ZM178.21,156.68c.92.4,1.85.78,2.79,1.13v1.46l-2.79-.02v-2.57ZM174.82,118.43c.81,1.5,1.78,3.24,2.91,5.14v12.25c-1.02-1.3-1.99-2.6-2.9-3.88,0-.15,0-.3-.01-.45v-13.06ZM128.85,197.09c-.46-.06-1.23-.03-1.86-.04-.48-.04-.03-.37-.47-.43-1.63-.13-4.23.04-5.47-.21-.39.01-.52.1-1.05.07-.38.09-.45-.1-.81-.11-.28,0-.45.08-.7.07-.35-.01-.68-.09-1.05-.11-3.39-.11-7.69-.01-11.4-.07-.21-.45-.12-.92-.12-1.39s.3-1.03-.12-1.39c-.13-.11-.43-.21-.81-.3-.04-1.11-.09-2.22-.18-3.28-3.23-.09-7.78-.06-11.38-.39-.13-2.63-.84-4.69-.77-7.52-.33-.89-1.64-.8-1.93-1.74-.03-1.38.11-2.94-.19-4.05.7-1.17,1.58-1.68,1.35-3.09-.22-1.31-1.75-1.54-2.31-2.51-.07-1.15-.6-1.84-1.16-2.51,0-.18-.02-.34-.06-.49l45.35-.38-.15,1.26-.13,15.45s-1.48,9.53-3.81,13.47c-.23,0-.45,0-.68,0,0-.12-.03-.24-.12-.34ZM88.17,155.6c-.56.1-1.13.18-1.7.27,0-.08.01-.17.05-.28-.04-.64-.07-1.34-.11-2.08.59-.2,1.17-.39,1.76-.6v2.69ZM88.17,157.35v1.26h-1.56c-.03-.24-.05-.49-.09-.71.03-.19.11-.33.21-.45.48-.04.96-.06,1.44-.1ZM159.51,185.37c-.44.32-.25,1.21-.25,1.94v.19c-.57,2.62-1.48,6.21-2.52,8.47-.43,0-.53.33-1.02.28-.19-.65.03-1.71-.25-2.28-.92-.18-1.89.04-2.78-.08-.19-.03-.38-.12-.57-.2-1.46-4.07-2.46-9.37-2.46-9.37l-.26-15.8h10.79c-.03,1.17-.34,14.86-.34,15.71,0,.12-.06.53-.16,1.12-.05,0-.1,0-.17.02ZM160.18,143.5c-3.76-3.4-7.12-7.02-10.04-10.5,1.36-1,2.67-1.99,3.91-2.97,1.84,2.59,3.91,5.3,6.2,7.99l-.06,5.49ZM160.17,144.76l-.15,13.13-12.51.09-.39-22.83c.77-.53,1.52-1.06,2.25-1.59,3.12,3.72,6.74,7.59,10.8,11.21ZM175.5,159.24l-.04-.9c-.02-.99-.05-1.98-.07-2.99.77.39,1.55.77,2.34,1.12v2.78l-2.23-.02ZM175.36,154.26c-.02-.78-.04-1.56-.05-2.34.8.54,1.6,1.07,2.42,1.56v1.94c-.8-.37-1.59-.76-2.37-1.16ZM175.28,150.74c-.14-5.81-.28-11.72-.41-17.13.91,1.24,1.86,2.48,2.86,3.73v15.02c-.83-.52-1.65-1.06-2.45-1.62ZM160.36,128.34l-.1,8.22c-2-2.4-3.82-4.81-5.46-7.12,1.35-1.08,2.64-2.14,3.85-3.17l1.71,2.08ZM157.83,125.27c-1.18,1.01-2.44,2.05-3.77,3.11-.76-1.09-1.47-2.16-2.14-3.19,1.2-1.06,2.31-2.08,3.33-3.05l2.58,3.13ZM152.22,121.1l1.88-.36.33.4c-.99.93-2.06,1.92-3.22,2.95-.2-.31-.39-.61-.58-.92l1.58-2.07ZM150.02,123.99c.15.25.31.49.47.74-.93.82-1.92,1.66-2.95,2.52l2.48-3.26ZM151.2,125.82c.66,1.02,1.37,2.07,2.12,3.15-1.27,1-2.6,2.01-3.99,3.03-.76-.93-1.5-1.85-2.19-2.75,1.44-1.17,2.8-2.32,4.07-3.43ZM148.55,132.57c-.48.35-.96.69-1.46,1.04l-.05-2.91c.49.62.99,1.24,1.51,1.87ZM131.34,120.09c1.06-1.07,1.96-2.03,2.7-2.83l-.05,6.26c-.83.76-1.71,1.55-2.65,2.37v-5.8ZM131.34,127.58c.92-.79,1.8-1.56,2.63-2.31l-.11,12.05c-.83.53-1.67,1.07-2.53,1.6v-11.33ZM131.34,140.41c.85-.52,1.69-1.04,2.51-1.57l-.03,3.02c-.82.45-1.65.89-2.49,1.32v-2.77ZM131.34,144.63c.84-.43,1.66-.86,2.47-1.3l-.13,15.01.04.6-2.38-.02v-14.29ZM127.7,123.63c1.16-1.09,2.22-2.12,3.16-3.06v5.73c-1,.86-2.05,1.75-3.16,2.65v-5.32ZM127.7,130.61c1.1-.89,2.15-1.76,3.16-2.61v11.21c-1.03.63-2.08,1.26-3.16,1.88v-10.47ZM127.7,142.56c1.08-.61,2.12-1.23,3.16-1.85v2.73c-1.03.53-2.09,1.05-3.16,1.56v-2.43ZM127.7,146.41c1.07-.5,2.12-1.02,3.16-1.54v14.05l-3.16-.02v-12.48ZM123.09,127.77c1.49-1.28,2.87-2.52,4.13-3.69v5.27c-1.31,1.06-2.68,2.13-4.13,3.22v-4.8ZM123.09,134.16c1.44-1.07,2.82-2.13,4.13-3.17v10.37c-1.34.76-2.72,1.51-4.13,2.25v-9.45ZM123.09,145.06c1.41-.73,2.78-1.48,4.13-2.23v2.39c-.46.22-.91.43-1.37.65-.92.42-1.84.82-2.76,1.22v-2.02ZM123.09,148.48c1.12-.47,2.23-.96,3.34-1.47.27-.12.52-.25.79-.37v12.25l-4.13-.03v-10.38ZM118.24,131.76c1.55-1.22,3.01-2.42,4.37-3.58v4.74c-1.39,1.04-2.85,2.08-4.37,3.13v-4.29ZM118.24,137.61c1.52-1.03,2.97-2.06,4.37-3.09v9.35c-1.42.74-2.88,1.45-4.37,2.15v-8.41ZM118.24,147.44c1.49-.69,2.95-1.4,4.37-2.13v1.99c-1.45.62-2.91,1.19-4.37,1.75v-1.6ZM118.24,150.42c1.46-.55,2.92-1.13,4.37-1.74v10.18l-4.37-.03v-8.41ZM113.63,135.25c1.44-1.04,2.82-2.08,4.13-3.11v4.24c-1.33.91-2.71,1.81-4.13,2.71v-3.84ZM113.63,140.61c1.42-.89,2.79-1.78,4.13-2.68v8.31c-.21.1-.41.2-.62.29-1.17.53-2.34,1.04-3.51,1.54v-7.47ZM113.63,149.46c1.35-.56,2.7-1.14,4.04-1.76.03-.01.06-.03.08-.04v1.56c-1.37.51-2.75,1.01-4.13,1.47v-1.23ZM113.63,152.04c1.38-.45,2.76-.93,4.13-1.44v8.22l-4.13-.03v-6.76ZM109.02,138.45c1.43-.95,2.8-1.91,4.13-2.86v3.8c-1.33.84-2.71,1.66-4.13,2.48v-3.42ZM109.02,143.36c1.42-.81,2.79-1.63,4.13-2.46v7.37c-1.37.57-2.75,1.11-4.13,1.63v-6.54ZM109.02,151.28c1.38-.51,2.76-1.06,4.13-1.62v1.19c-1.37.45-2.75.87-4.13,1.26v-.83ZM109.02,153.46c1.38-.39,2.75-.82,4.13-1.26v6.6l-4.13-.03v-5.3ZM103.93,141.7c1.59-.97,3.13-1.94,4.61-2.92v3.38c-1.49.85-3.03,1.69-4.61,2.51v-2.97ZM103.93,146.12c1.58-.81,3.11-1.64,4.61-2.49v6.46c-1.53.57-3.07,1.1-4.61,1.6v-5.57ZM103.93,153.04c1.54-.49,3.08-1.02,4.61-1.58v.79c-1.53.43-3.07.84-4.61,1.21v-.43ZM103.93,154.78c1.54-.36,3.08-.75,4.61-1.18v5.16l-4.61-.03v-3.95ZM98.83,144.64c1.58-.87,3.12-1.75,4.61-2.65v2.93c-1.5.77-3.04,1.52-4.61,2.25v-2.53ZM98.83,148.6c1.57-.72,3.11-1.47,4.61-2.24v5.48c-1.53.49-3.07.95-4.61,1.37v-4.61ZM98.83,154.54c1.54-.42,3.08-.87,4.61-1.35v.39c-1.53.36-3.07.68-4.61.97h0ZM98.83,155.86c1.54-.29,3.08-.61,4.61-.97v3.83l-4.61-.03v-2.83ZM93.98,147.18c1.49-.74,2.95-1.49,4.37-2.26v2.49s-.07.04-.11.05c-1.41.65-2.83,1.26-4.26,1.85v-2.13ZM93.98,150.69c1.46-.6,2.92-1.22,4.37-1.88v4.53c-1.45.39-2.91.75-4.37,1.08v-3.73ZM93.98,156.67c1.46-.21,2.92-.45,4.37-.72v2.73l-4.37-.03v-1.98ZM88.65,149.67c.61-.27,1.22-.53,1.83-.81,1.02-.47,2.03-.95,3.02-1.44v2.08c-1.61.66-3.23,1.29-4.85,1.88v-1.71ZM88.65,152.73c1.62-.58,3.24-1.19,4.85-1.84v3.64c-1.61.36-3.23.69-4.85.98v-2.77ZM88.65,157.3c1.62-.15,3.24-.33,4.85-.56v1.91l-4.85-.03v-1.31ZM88.17,149.88v1.66c-.61.22-1.22.42-1.83.63-.02-.49-.05-.98-.07-1.49.63-.26,1.27-.53,1.9-.8ZM231.64,174.23c-.46-.2-.85-.02-1.35,0-1.29.05-2.91-.17-3.96.08-.65.16-1.46,1.11-2.02,1.52-.7.5-1.7.93-1.94,1.6-.17.49-.17,1.12-.14,1.79,0,.03-.02.08-.03.14-2.69.14-5.81-.1-8.27.17-.26.03-.5.22-.76.25-.18.02-.3-.19-.51-.17-.26.03-.31.47-.59.25-.38.08-.48-.14-.76-.17-.89.6-2.78.2-3.96.51-.31.14.01.91-.34,1.01-.46.02-1.01-.06-1.35.08-.17.61-.04,1.53-.08,2.28-.73.18-1.24-.09-2.02-.08-.41.42-.38.95-.59,1.43-1.51-.11-3.02-.14-4.05.42-.22.29.05,1.06-.17,1.35-1.39-.04-3.28-.35-4.39.08-.25.06-.13.49-.42.51-1.44,0-2.89-.02-4.13.17-.13.83-.12,1.79-.17,2.7-.33.33-.77.4-.93,1.01-.17.66.16,1.76,0,2.45-.07.31-.32.37-.34.67,0,.1.02.21.04.32-.06-.28-.13-.56-.22-.81-.04-.11.27-.35-.35-.39-.63.14-.35.44-.35.68,0,.62.09,1.3.06,1.89-.41,0-.82,0-1.19.03v.03c-.09.01-.19.02-.28.04-.15.08-.07.4-.07.64-.03.04-.05.08-.03.13-.18-.02-.38-.02-.6-.03-.05-.14-.03-.34-.06-.57-.16-1.03.12-2.62,0-3.63-.37-.14-.92-.09-1.27-.25-.56-1.27.18-3.44-.17-4.72-.11-.4-.7-1-1.1-1.1-.64-.16-2,.11-2.78.17-.9.07-1.74.12-2.61.25-.17.61-.04,1.53-.08,2.28-.34,0-.33.38-.43.64-.23-.82-.43-1.68-.58-2.55,0-.38,0-.76,0-1.12-.07-.03-.13-.07-.18-.12-.1-.79-.16-1.6-.16-2.4,0-1.9-.11-7.68-.27-15.18l-.05-1.61,62.08-.52v.11s-.1,9.84-.1,9.84c0,0-.5,3.25-1.35,5.98-1.45-.15-3.15-.05-4.55-.25-.06-4.13.11-3.84-.08-7.84ZM301.65,178.78v-2.11l-.62-.35-.61-1.49-.48,1.89-.22.22v1.67h-1.32v-1.76h-.79l-.44-2.02-.53,2.28h-.44l-1.34,2.99c-.29-.02-.58,7.4-.88,7.39-.02-.26.06-.62-.08-.76-.65-.02-1.43.08-1.86-.17-.18-7.52-.24-9.59-.42-17.11-3.69,0-7.22.15-10.97.08.03,6.92.13,8.18.08,15.17-.48-.05-1.18.11-1.52-.08-.11-2.09.13-4.37-.08-6.24-.05-.45-.38-.75-.17-1.18-.24-.06-.41-.21-.34-.59-.07-.29-.6-.13-.59-.51-.03-.54.07-1.2-.08-1.6-.72.06-1.28.29-1.77.59.03.51-.02.93-.08,1.35-.68.08-1.26.25-1.86.42-.05.19-.17.51,0,.67-.17.11-.43.13-.42.42.19.37-.13.57-.17.93-.29,2.48.06,5.55-.08,8.27-.38.13-.97.04-1.1.42-.16.28-.07.78-.08,1.26,0,.38.14.97-.17,1.1-.23-4.13-.07-8.65-.25-12.82-.77-.68-1.44-1.35-3.12-1.27-.07-.76.12-1.57,0-2.11-.49-.5-1.32-.73-2.19-.68-.27.02-.48.21-.76.25-.37.05-.79-.25-1.01.08-.12-.14-.13-.38-.42-.34-.03-1.72-.08-3.98-.13-6.56v-.33s48.27-.28,48.27-.28c-.17,1.1-.16,2.45-.19,3.75h-.38v2.08c-2.77-.04-5.54-.04-8.29-.03v7.79h-.5v-.7h-1.58ZM551.08,149.65l-.03-1.8h.42v-.33h0c0,.7.02,1.41.03,2.11h-.42ZM744.18,166.82v2.51c-.83.42-1.68.84-2.56,1.25v-2.26c.88-.49,1.73-.99,2.56-1.5ZM741.63,167.46v-8.28c1.05-.98,1.91-1.83,2.56-2.5v9.26c-.83.51-1.68,1.02-2.56,1.52ZM744.18,170.16v7.44l-2.56.08v-6.28c.88-.4,1.73-.82,2.56-1.24ZM762.97,163.65l-.03-1.96c.88.49,1.75.95,2.62,1.37v1.9c-.87-.41-1.73-.84-2.59-1.31ZM765.56,166.2v10.72l-2.39.08-.18-12.06c.86.45,1.72.88,2.58,1.27ZM762.92,160.41l-.05-3.52c.9.89,1.8,1.74,2.7,2.56v2.38c-.88-.44-1.76-.91-2.64-1.42ZM763.21,180.11h69.15v11.34c-.23.11-5.45.87-5.45.87,0,0-.3.14-.28.29-.13.65-.49,1.2-.42,1.95-.23.1-.6.13-.83.22-.19.72.26,1.31,0,1.91-.07.16-.31.33-.53.49v.11s-.06.05-.09.07c-.27.25-.46.49-.69.7v-1.85c-.51-.14-1.61,0-2.21-.1v-.54c-1.3-.11-3.01-.04-4.36-.13-.05-1.56.09-3.21-.07-4.72-.38-.08-.7,0-1.11,0-1.06.02-2.39-.06-3.25.03-.53.06-1.2.42-1.66.57-.57.19-1.4.35-1.59.61-.25.32-.07.81-.07,1.24s.06.84-.07,1.24c-2.21.05-4.76-.04-6.78.06-.22.01-.41.08-.62.1-.15,0-.25-.07-.42-.06-.22,0-.26.18-.48.1-.32.03-.39-.05-.62-.06-.73.23-2.28.08-3.25.19-.26.05,0,.34-.28.38-.38,0-.83-.02-1.11.03-.14.23-.04.58-.07.86-.6.07-1.02-.03-1.66-.03-.34.16-.31.36-.48.54-1.24-.04-2.47-.05-3.32.16-.18.11.04.4-.14.51-1.14-.02-2.69-.13-3.6.03-.21.02-.11.18-.35.19-1.18,0-2.37,0-3.39.06-.11.31-.1.68-.14,1.02-.27.13-.63.15-.76.38-.14.25.13.66,0,.93-.06.12-.26.14-.28.25.06.3.23.72.07,1.02-.55.02-.57-.21-.69-.38-.35,0-.7,0-1.02,0h0c-.08.02-.16.02-.23.03-.21.05.12.35-.21.35-.5,0-.36-.13-.42-.29-.13-.39.1-.99,0-1.37-.3-.05-.76-.03-1.04-.1-.46-.48.15-1.3-.14-1.79-.09-.15-.57-.38-.9-.41-.53-.06-1.64.04-2.28.06-.74.03-1.43.05-2.14.1-.14.23-.04.58-.07.86-.47,0-.11.4-.76.32-.16-.43-.02-.99-.07-1.47-.39-.06-.31-.35-.62-.45-.4-.04-1.1-.06-1.45-.03-.08.22-.18.43-.21.64-.03.23.17.51.07.7-.07.13-.43.16-.55.29-.05.05.04.17,0,.26-.03.07-.13.11-.14.16-.06.27.04.57,0,.89-.47.04-.96-.02-1.31.03-.1.02-.18.04-.25.07v-6.6h-4.23l-.14-12.86ZM786.1,170.99c-.87-.3-1.74-.63-2.6-.99.87-.02,1.73-.08,2.6-.16v1.15ZM792.53,169.67c-.75-.13-1.51-.28-2.26-.46.76-.16,1.51-.34,2.26-.54v1ZM868.23,173.64l-1.58.05-.27-17.67c.61.32,1.22.65,1.85.97v16.65ZM868.23,155.33c-.63-.33-1.26-.66-1.87-1l-.07-4.89c.64.46,1.29.91,1.95,1.37v4.52ZM868.23,149c-.67-.47-1.33-.93-1.97-1.4l-.09-6.01c.53.49,1.22,1.12,2.06,1.85v5.56ZM906.89,160.69c1.51.79,3.04,1.57,4.62,2.32.09.04.18.08.26.12v4.65c-1.67-.64-3.3-1.3-4.89-1.98v-5.1ZM906.89,170.19c1.63.29,3.26.54,4.89.76v1.3l-4.89.16v-2.22ZM901.94,157.95c1.43.83,2.89,1.65,4.39,2.45v5.15c-1.5-.65-2.96-1.31-4.39-1.99v-5.61ZM901.94,165.2c1.16.54,2.34,1.08,3.54,1.6-1.18-.32-2.36-.67-3.54-1.03v-.57ZM901.94,167.32c1.46.45,2.92.86,4.39,1.24v.02c-1.47-.27-2.93-.57-4.39-.89v-.37ZM901.94,169.22c1.46.32,2.93.61,4.39.87v2.34l-4.39.14v-3.35ZM896.75,154.76c1.5.97,3.05,1.93,4.64,2.87v5.67c-1.59-.76-3.14-1.54-4.64-2.32v-6.21ZM896.75,162.65c1.5.78,3.05,1.54,4.64,2.3v.65c-1.55-.49-3.1-1.01-4.64-1.57v-1.37ZM896.75,165.59c1.54.56,3.09,1.08,4.64,1.57v.41c-1.55-.35-3.09-.72-4.64-1.13v-.85ZM896.75,167.98c1.54.4,3.09.78,4.64,1.12v3.48l-4.64.15v-4.75ZM891.55,151.24c1.49,1.06,3.04,2.12,4.64,3.17v6.28c-1.6-.85-3.15-1.7-4.64-2.56v-6.88ZM891.55,159.83c1.49.85,3.04,1.69,4.64,2.53v1.46c-1.55-.58-3.1-1.2-4.64-1.85v-2.13ZM891.55,163.59c1.54.64,3.09,1.24,4.64,1.81v.91c-1.55-.42-3.09-.87-4.64-1.35v-1.36ZM891.55,166.51c1.54.47,3.09.92,4.64,1.33v4.91l-4.64.15v-6.39ZM886.85,147.74c1.33,1.03,2.71,2.06,4.14,3.1v6.96c-1.44-.84-2.82-1.67-4.14-2.5v-7.56ZM886.85,157.04c1.33.82,2.71,1.64,4.14,2.47v2.22c-1.39-.59-2.77-1.21-4.14-1.86v-2.83ZM886.85,161.51c1.38.64,2.76,1.26,4.14,1.84v1.43c-1.38-.43-2.76-.89-4.14-1.37v-1.9ZM886.85,164.98c1.38.48,2.76.93,4.14,1.36v6.57l-4.14.13v-8.07ZM882.15,143.94c1.31,1.11,2.7,2.23,4.14,3.37v7.64c-1.45-.92-2.83-1.83-4.14-2.72v-8.29ZM882.15,154.02c1.31.88,2.7,1.77,4.14,2.67v2.91c-.91-.44-1.82-.88-2.72-1.34-.48-.25-.95-.5-1.42-.75v-3.49ZM882.15,159.19c.23.12.46.25.69.37,1.15.59,2.3,1.15,3.45,1.69v1.97s-.06-.02-.09-.03c-1.38-.49-2.73-1-4.06-1.52v-2.47ZM882.15,163.26c1.15.45,2.32.88,3.5,1.31.21.08.43.15.64.22v8.28l-4.14.13v-9.94ZM877.2,139.57c1.36,1.25,2.83,2.56,4.39,3.89v8.39c-1.57-1.08-3.04-2.13-4.39-3.13v-9.15ZM877.2,150.57c1.36.99,2.82,2.03,4.39,3.09v3.57c-1.5-.8-2.96-1.62-4.39-2.46v-4.19ZM877.2,156.48c1.43.83,2.9,1.63,4.39,2.42v2.55c-1.5-.59-2.96-1.2-4.39-1.83v-3.14ZM877.2,161.24c1.43.62,2.9,1.22,4.39,1.8v10.17l-4.39.14v-12.11ZM872.5,135.03c1.24,1.26,2.62,2.61,4.14,4.03v9.26c-1.54-1.15-2.92-2.23-4.14-3.22v-10.06ZM872.5,146.99c1.24.99,2.62,2.05,4.14,3.17v4.27c-1.42-.84-2.8-1.7-4.14-2.56v-4.87ZM872.5,153.63c1.35.85,2.73,1.69,4.14,2.52v3.22c-1.41-.62-2.8-1.26-4.14-1.91v-3.83ZM872.5,159.11c1.35.64,2.73,1.27,4.14,1.88v12.38l-4.14.13v-14.39ZM868.79,131.11c.9,1,1.96,2.12,3.15,3.35v10.17c-1.23-1.01-2.29-1.91-3.15-2.68v-10.85ZM868.79,143.93c.9.78,1.96,1.66,3.15,2.62v4.96c-1.07-.7-2.13-1.4-3.15-2.11v-5.46ZM868.79,151.18c1.03.7,2.08,1.4,3.15,2.09v3.92c-1.07-.52-2.12-1.05-3.15-1.58v-4.43ZM868.79,157.28c1.03.53,2.08,1.05,3.15,1.57v14.68l-3.15.1v-16.35ZM868.23,130.5v10.97c-1.04-.93-1.75-1.61-2.09-1.94l-.17-11.65c.56.67,1.32,1.56,2.27,2.62ZM856.67,135.92l.71-1.14,2.64,4.64v3.41c-1.15-.95-2.27-1.89-3.35-2.82v-4.08ZM856.67,141.95c1.09.92,2.21,1.84,3.38,2.77l.03,6c-1.18-.71-2.31-1.42-3.4-2.12v-6.65ZM856.67,150.37c1.09.69,2.24,1.39,3.41,2.09l.09,21.44-3.5.11v-23.64ZM856.11,136.82v2.71c-.37-.32-.73-.64-1.09-.96l1.09-1.75ZM854.89,140.43c.4.35.81.7,1.22,1.05v6.77c-.41-.27-.82-.53-1.22-.8v-7.02ZM854.89,149.22c.4.26.81.52,1.22.78v24.02l-1.22.04v-24.84ZM848.37,142.87c-.58-.43-1.13-.85-1.66-1.25.66-.97,1.21-1.83,1.66-2.55v3.81ZM846.03,134.15l2.06,3.24c-.47.78-1.16,1.89-2.06,3.24v-6.47ZM846.03,142.97c.74.57,1.52,1.15,2.34,1.75v29.56l-2.34.07v-31.38ZM845.47,133.66v7c-1.02-.8-1.97-1.57-2.81-2.26,1.05-1.68,1.98-3.27,2.81-4.74ZM842.31,140.03c.82.67,1.71,1.38,2.68,2.14-.78,1.13-1.68,2.37-2.68,3.69v-5.83ZM842.31,147.67c1.19-1.52,2.25-2.96,3.17-4.27v30.96l-3.17.1v-26.8ZM829.82,128.73c1.05-1.89,1.9-3.53,2.54-4.82v8.72c-.46.79-1.32,2.19-2.54,4.01v-7.91ZM829.82,138.61c1.05-1.52,1.9-2.82,2.54-3.84v15.97c-.82.96-1.67,1.92-2.54,2.86v-14.99ZM829.82,155.2c.87-.91,1.72-1.84,2.54-2.78v4.7c-.82.79-1.67,1.58-2.54,2.35v-4.27ZM829.82,160.93c.87-.75,1.72-1.52,2.54-2.29v16.14l-2.54.08v-13.93ZM826.36,134.59c1.08-1.72,2.05-3.36,2.91-4.86v7.74c-.83,1.21-1.8,2.58-2.91,4.04v-6.92ZM826.36,143.32c1.08-1.39,2.05-2.71,2.91-3.92v14.78c-.94.99-1.91,1.96-2.91,2.91v-13.77ZM826.36,158.59c1-.92,1.97-1.86,2.91-2.82v4.19c-.94.82-1.91,1.62-2.91,2.4v-3.76ZM826.36,163.75c1-.76,1.97-1.54,2.91-2.34v13.47l-2.91.09v-11.22ZM823.02,139.62c.99-1.42,1.92-2.81,2.78-4.15v6.77c-.86,1.11-1.78,2.27-2.78,3.46v-6.08ZM823.02,147.41c.99-1.15,1.92-2.28,2.78-3.37v13.58c-.9.84-1.83,1.65-2.78,2.43v-12.64ZM823.02,161.46c.95-.76,1.88-1.55,2.78-2.36v3.68c-.91.69-1.83,1.37-2.78,2.01v-3.34ZM823.02,166.14c.95-.63,1.88-1.29,2.78-1.97v10.82l-2.78.09v-8.95ZM819.56,144.29c1.02-1.3,1.99-2.6,2.91-3.89v5.95c-.91,1.07-1.88,2.16-2.91,3.26v-5.32ZM819.56,151.22c1.02-1.06,1.99-2.12,2.91-3.17v12.46c-.95.76-1.92,1.49-2.91,2.19v-11.47ZM819.56,164.03c.99-.68,1.96-1.39,2.91-2.13v3.28c-.95.63-1.92,1.24-2.91,1.82v-2.97ZM819.56,168.27c.99-.56,1.96-1.16,2.91-1.77v8.6l-2.91.09v-6.92ZM816.46,148.04c.88-1.01,1.72-2.02,2.54-3.04v5.21c-.81.86-1.66,1.71-2.54,2.56v-4.73ZM816.46,154.29c.87-.83,1.72-1.66,2.54-2.5v11.28c-.83.57-1.68,1.11-2.54,1.62v-10.41ZM816.46,165.98c.86-.5,1.7-1.02,2.54-1.58v2.92c-.83.47-1.68.93-2.54,1.35v-2.69ZM816.46,169.91c.86-.42,1.7-.85,2.54-1.32v6.62l-2.54.08v-5.38ZM813,151.79c1-1.02,1.97-2.06,2.91-3.12v4.63c-.94.89-1.91,1.77-2.91,2.63v-4.15ZM813,157.39c1-.84,1.97-1.7,2.91-2.57v10.21c-.95.55-1.92,1.06-2.91,1.54v-9.18ZM813,167.79c.99-.46,1.95-.96,2.91-1.49v2.65c-.95.46-1.92.89-2.91,1.28v-2.44ZM813,171.42c.98-.38,1.95-.8,2.91-1.25v5.14l-2.91.09v-3.98ZM809.66,154.98c.95-.85,1.88-1.73,2.78-2.63v4.07c-.9.76-1.83,1.51-2.78,2.24v-3.67ZM809.66,160.03c.95-.71,1.88-1.44,2.78-2.18v8.98c-.91.42-1.84.81-2.78,1.16v-7.96ZM809.66,169.17c.94-.34,1.87-.71,2.78-1.12v2.4c-.91.35-1.84.67-2.78.96v-2.24ZM809.66,172.57c.94-.28,1.87-.6,2.78-.94v3.79l-2.78.09v-2.93ZM806.2,157.86c.99-.77,1.96-1.57,2.91-2.4v3.6c-.95.71-1.91,1.39-2.91,2.05v-3.25ZM806.2,162.44c.99-.64,1.96-1.31,2.91-1.99v7.75c-.95.34-1.92.64-2.91.89v-6.64ZM806.2,170.23c.98-.25,1.95-.54,2.91-.86v2.21c-.96.28-1.93.52-2.91.73v-2.08ZM803.35,159.93c.78-.52,1.54-1.07,2.29-1.64v3.19c-.75.48-1.51.95-2.29,1.4v-2.95ZM803.35,164.15c.77-.44,1.54-.89,2.29-1.37v6.43c-.71.17-1.42.32-2.14.45-.05,0-.1.01-.14.02v-5.53ZM803.35,170.81c.11-.02.22-.03.33-.05.66-.11,1.31-.25,1.95-.4v2.07c-.75.15-1.52.27-2.29.37v-1.99ZM803.35,173.92c.77-.1,1.53-.22,2.29-.37v2.05h.56v-2.16c.98-.2,1.95-.44,2.91-.71v2.79l-5.75.18v-1.78ZM799.89,162.07c.99-.56,1.96-1.15,2.91-1.78v2.9c-.95.54-1.92,1.05-2.91,1.52v-2.65ZM799.89,165.95c.99-.46,1.96-.96,2.91-1.48v5.3c-.97.15-1.94.25-2.91.31v-4.13ZM799.89,171.19c.97-.06,1.94-.15,2.91-.3v1.97c-.97.11-1.94.19-2.91.22v-1.9ZM799.89,174.2c.97-.04,1.94-.1,2.91-.21v1.74l-2.91.09v-1.62ZM796.55,163.77c.94-.43,1.87-.9,2.78-1.39v2.61c-.91.43-1.84.83-2.78,1.19v-2.41ZM796.55,167.37c.94-.36,1.87-.74,2.78-1.16v3.9c-.93.04-1.85.04-2.78,0v-2.73ZM796.55,171.2c.48.02.96.05,1.44.05.45,0,.9-.01,1.35-.03v1.89c-.93.02-1.86,0-2.78-.04v-1.87ZM796.55,174.18c.65.03,1.31.06,1.96.06.27,0,.55-.02.82-.03v1.62l-2.78.09v-1.75ZM793.08,165.15c.98-.34,1.95-.72,2.91-1.13v2.38c-.95.36-1.92.68-2.91.97v-2.22ZM793.08,168.52c.98-.28,1.95-.59,2.91-.94v2.5c-.97-.06-1.94-.16-2.91-.31v-1.25ZM793.08,170.88c.97.14,1.94.24,2.91.3v1.85c-.97-.07-1.94-.17-2.91-.32v-1.83ZM793.08,173.83c.97.14,1.94.25,2.91.32v1.79l-2.91.09v-2.2ZM790.12,166.03c.81-.2,1.62-.44,2.41-.7v2.18c-.8.22-1.6.42-2.41.59v-2.08ZM790.12,170.31c.8.19,1.61.35,2.41.48v1.84c-.81-.13-1.61-.3-2.41-.48v-1.84ZM790.12,173.28c.8.18,1.61.34,2.41.46v2.31l-2.41.08v-2.85ZM786.65,166.7c.33-.05.65-.09.98-.15.65-.11,1.29-.25,1.93-.4v2.07c-.59.12-1.19.21-1.79.3-.37-.12-.75-.24-1.12-.37v-1.46ZM786.65,169.79c.16-.02.33-.03.5-.05.19-.02.37-.05.56-.08.62.19,1.23.36,1.85.52v1.84c-.97-.24-1.94-.52-2.91-.84v-1.39ZM786.65,172.35c.97.31,1.94.57,2.91.8v3l-2.91.09v-3.89ZM786.1,166.78v1.18c-.8-.29-1.61-.61-2.42-.96.81-.04,1.61-.11,2.42-.21ZM783.31,168.04c.63.27,1.27.53,1.9.77-.63.05-1.27.08-1.9.1v-.87ZM783.31,171.12c.93.38,1.85.73,2.78,1.04v4.09l-2.78.09v-5.22ZM779.85,166.98c.42.03.85.03,1.27.04.55.27,1.09.53,1.64.78v1.12c-.58,0-1.16,0-1.73-.03-.39-.19-.78-.39-1.17-.59v-1.32ZM779.85,169.94c.3.02.6.03.9.04.67.32,1.34.62,2.01.91v5.48l-2.91.09v-6.52ZM779.29,168.01c-.79-.42-1.57-.87-2.36-1.34.79.12,1.57.21,2.36.27v1.07ZM776.39,164.34c.8.51,1.6.99,2.39,1.44-.8-.08-1.59-.19-2.39-.32v-1.11ZM776.39,167.63c.6.36,1.21.7,1.81,1.04-.6-.07-1.21-.15-1.81-.25v-.78ZM776.39,169.52c.97.16,1.94.28,2.91.36v6.59l-2.91.09v-7.05ZM772.92,161.97c.97.71,1.94,1.37,2.91,2.01v1.38c-.47-.09-.94-.19-1.41-.3-.5-.34-1-.68-1.5-1.04v-2.05ZM772.92,165.83c.34.09.68.16,1.03.24.63.42,1.25.81,1.88,1.2v1.03c-.97-.18-1.94-.39-2.91-.65v-1.82ZM772.92,168.81c.97.25,1.94.45,2.91.62v7.15l-2.91.09v-7.87ZM769.58,159.34c.93.77,1.86,1.52,2.78,2.22v2.06c-.93-.68-1.86-1.4-2.78-2.15v-2.12ZM769.58,162.89c.56.45,1.13.86,1.69,1.29-.56-.18-1.13-.38-1.69-.59v-.69ZM769.58,164.76c.93.34,1.86.65,2.78.91v1.84c-.93-.26-1.86-.56-2.78-.89v-1.86ZM769.58,167.8c.93.32,1.85.61,2.78.87v8.04l-2.78.09v-8.99ZM766.12,156.28c.97.91,1.94,1.76,2.91,2.59v2.14c-.97-.81-1.94-1.65-2.91-2.54v-2.19ZM766.12,159.95c.97.86,1.94,1.7,2.91,2.48v.94c-.97-.38-1.94-.81-2.91-1.27v-2.15ZM766.12,163.33c.97.45,1.94.85,2.91,1.22v1.86c-.97-.36-1.94-.76-2.91-1.2v-1.89ZM766.12,166.43c.97.43,1.94.81,2.91,1.16v9.21l-2.91.09v-10.46ZM765.56,155.76v2.19c-.91-.85-1.82-1.73-2.72-2.65l-.03-2.29c.92.95,1.84,1.87,2.75,2.74ZM759.51,161.61c-.33-.21-.66-.43-.99-.65.35-.28.67-.54.98-.8v1.44ZM757.45,156.56c.25-.24.49-.47.72-.7l1.33,2.33v.08c-.72-.49-1.44-1-2.16-1.53l.11-.18ZM756.66,157.83l.09-.15c.83.61,1.66,1.19,2.48,1.74-.41.34-.86.71-1.35,1.1-.41-.28-.81-.57-1.22-.86v-1.83ZM756.66,161.02c.1.07.21.15.31.22-.1.08-.21.16-.31.24v-.46ZM756.66,162.41c.33-.25.65-.49.95-.73.63.43,1.27.84,1.91,1.24l.06,14.19-2.92.09v-14.79ZM751.24,154.47l1.21,1.89c-.52-.44-1.03-.89-1.55-1.35l.34-.55ZM749.69,156.95l.61-.98c.91.81,1.82,1.59,2.74,2.33v1.22c-1.04.87-2.16,1.76-3.35,2.66v-5.23ZM749.69,163.1c1.19-.88,2.31-1.76,3.35-2.62v3.6c-1.04.71-2.16,1.43-3.35,2.16v-3.14ZM749.69,167.1c1.19-.72,2.31-1.44,3.35-2.14v12.34l-3.35.11v-10.31ZM744.18,149.68v5.93c-.58.61-1.44,1.49-2.56,2.56v-5.2s1.88-2.41,2.56-3.28ZM737.52,157.24c1.34-1.35,2.53-2.63,3.55-3.79v5.24c-1.01.94-2.2,1.99-3.55,3.11v-4.56ZM737.52,162.76c1.34-1.09,2.53-2.13,3.55-3.06v8.08c-.96.53-1.94,1.05-2.96,1.55-.2.1-.4.19-.6.29v-6.85ZM737.52,170.43c.32-.15.64-.3.95-.46.89-.44,1.76-.89,2.6-1.36v2.21c-1.15.52-2.33,1.03-3.55,1.52v-1.92ZM737.52,173.15c1.22-.48,2.41-.98,3.55-1.5v6.04l-3.55.11v-4.65ZM733.55,160.97c1.22-1.08,2.36-2.14,3.41-3.18v4.46c-1.05.85-2.18,1.73-3.41,2.63v-3.91ZM733.55,165.8c1.22-.88,2.36-1.75,3.41-2.59v6.67c-1.09.51-2.23,1-3.41,1.48v-5.56ZM733.55,172.15c1.18-.47,2.32-.95,3.41-1.46v1.88c-.07.03-.15.06-.22.09-1.02.39-2.09.78-3.18,1.14v-1.66ZM733.55,174.59c1.18-.39,2.32-.79,3.41-1.21v4.45l-3.41.11v-3.34ZM729.44,164.37c1.25-.96,2.44-1.94,3.56-2.9v3.82c-1.12.8-2.3,1.61-3.56,2.41v-3.33ZM729.44,168.58c1.25-.79,2.44-1.59,3.56-2.38v5.38c-1.15.45-2.33.87-3.56,1.27v-4.26ZM729.44,173.62c1.23-.39,2.41-.81,3.56-1.25v1.62c-1.15.37-2.33.73-3.56,1.06v-1.43ZM729.44,175.81c1.22-.32,2.41-.67,3.56-1.04v3.18l-3.56.11v-2.25ZM728.88,164.79v3.27c-1.13.71-2.32,1.42-3.55,2.11v-2.85h0c1.24-.83,2.42-1.67,3.56-2.53ZM717.44,175.38c-.14.02-.29.02-.44.04,0-.17,0-.34,0-.5.14-.06.29-.11.44-.17v.63ZM717.44,176.13v1.02c-.2.02-.41.02-.61.04.04-.34.08-.68.12-1.02.16-.02.33-.02.49-.04ZM717.44,177.9v.55l-.74.02c.01-.17.02-.35.04-.53.23-.02.47-.02.7-.04ZM689.02,181.53h-.2v.02c-.1.01-.21.01-.31.04-.21.05-.37.12-.52.19v-.52l-.78.25-.05.25h-.34v-.3l-.46.05-.05-.57-1.55.02v-2.52c2.23.38,4.41.62,6.53.74v.11s-.28.02-.28.02l-.78.78-.27.02-.07,1.39c-.31,0-.6,0-.88.03ZM700.13,177.48c-.03-.12-.05-.25-.07-.38.37.07.74.12,1.11.18-.16.19-.44.3-1.04.2ZM692.07,177.86c-.03.2-.03.4-.03.61-.12,0-.24-.01-.35-.02l-.09-.04-.02-.23h-.23v.25c-2.15-.12-4.34-.36-6.58-.75v-1.11c2.54.45,5.08.71,7.6.79-.11.19-.28.33-.3.49ZM692.05,179.22h0s-.19.02-.19.02v-.03c.06,0,.13,0,.19.01ZM702.2,175.96c-.75.12-1.5.24-2.25.33-.02-.29-.04-.59-.04-.89.77.14,1.54.27,2.29.38,0,.06,0,.12,0,.18ZM692.45,176.19c-.06.09-.04.25,0,.43-2.55-.08-5.11-.35-7.67-.82v-1.71l-.75-.09s-.01-1.16.02-1.71c3.17,1.35,6.27,2.43,9.31,3.27-.33.18-.71.34-.9.63ZM662.11,173.24v9.63c-.19.42-1.42.14-1.5.64-.19.58-.06-4.89-.06-4.89h-1.62v-10.53c1.24.79,2.47,1.52,3.69,2.22-.91.51-.52,1.83-.52,2.92ZM725.33,178.2v-1.42c1.22-.25,2.4-.52,3.55-.82v2.12l-3.55.11ZM725.33,176.01v-1.25c1.22-.3,2.4-.62,3.55-.98v1.4c-1.15.3-2.34.57-3.55.82ZM725.33,174v-2.99c1.23-.68,2.42-1.38,3.55-2.08v4.08c-1.15.36-2.34.69-3.55.99ZM721.21,169.86c1.23-.7,2.41-1.42,3.56-2.17v2.78c-1.15.63-2.33,1.24-3.56,1.82v-2.43ZM721.21,173.11c1.23-.58,2.41-1.18,3.56-1.8v2.82c-1.16.27-2.34.52-3.56.72v-1.74ZM721.21,175.61c1.21-.21,2.4-.45,3.56-.72v1.23c-1.16.23-2.34.43-3.56.6v-1.11ZM721.21,177.47c1.21-.17,2.4-.37,3.56-.59v1.33l-3.56.11v-.85ZM718,171.57c.91-.45,1.79-.91,2.66-1.4v2.38c-.38.18-.76.35-1.14.52-.5.22-1,.44-1.52.65v-2.16ZM718,174.53c.62-.25,1.23-.51,1.82-.77.28-.13.56-.26.84-.39v1.58c-.87.14-1.76.26-2.66.37v-.79ZM718,176.07c.9-.1,1.79-.22,2.66-.36v1.1c-.87.12-1.76.21-2.66.3v-1.03ZM718,177.85c.9-.08,1.79-.18,2.66-.29v.79l-2.66.08v-.58ZM717.44,171.85v2.11c-.17.07-.35.13-.53.2-.03-.14-.07-.28-.12-.4-.13-.34-.59-.76-1.12-1.1.59-.27,1.19-.53,1.77-.81ZM693.98,174c.06.36.07.69-.02.98-3.22-.88-6.52-2.01-9.9-3.46,0-.38,0-.76,0-1.15,3.4,1.52,6.7,2.71,9.92,3.63ZM662.69,167.99l-.03,1.49c-1.23-.71-2.47-1.47-3.72-2.28v-1.59c1.25.84,2.5,1.63,3.75,2.38ZM737.34,183.79h-3.64v.92h-.43l-.11,2.23h-.6l.11,1.3-1.03-.05-.05,1.36-.33.16v3.86h-.43v1.63h-.82l-.22-12.87-1.68-.43-.22-1.74-.85-.04h17.14v14.86h-3.26v1.47h-.87v-9.23h-.82v-.92l-1.9-2.5Z"/>
</svg>